<svg width="224" height="218" viewBox="0 0 224 218" fill="none" xmlns="http://www.w3.org/2000/svg">
<path d="M112.118 0.631714C50.4177 0.631714 0.385483 50.3772 0.385483 111.743C0.385483 160.836 32.4001 202.485 76.7951 217.177C82.3789 218.206 84.4294 214.767 84.4294 211.832C84.4294 209.183 84.3251 200.429 84.2778 191.145C53.1929 197.867 46.6338 178.035 46.6338 178.035C41.5513 165.192 34.2281 161.778 34.2281 161.778C24.0911 154.882 34.9922 155.023 34.9922 155.023C46.2123 155.807 52.1203 166.473 52.1203 166.473C62.0856 183.46 78.2585 178.549 84.6345 175.71C85.6369 168.528 88.5331 163.627 91.7281 160.853C66.9113 158.042 40.8222 148.515 40.8222 105.94C40.8222 93.8101 45.1871 83.8976 52.335 76.1166C51.1748 73.3176 47.3506 62.0169 53.4172 46.712C53.4172 46.712 62.7998 43.7256 84.1516 58.1016C93.0636 55.6389 102.622 54.405 112.118 54.3631C121.613 54.405 131.179 55.6389 140.108 58.1016C161.435 43.7256 170.804 46.712 170.804 46.712C176.886 62.0169 173.06 73.3176 171.9 76.1166C179.063 83.8976 183.398 93.8092 183.398 105.94C183.398 148.616 157.26 158.014 132.38 160.764C136.388 164.212 139.959 170.974 139.959 181.34C139.959 196.206 139.829 208.172 139.829 211.832C139.829 214.789 141.84 218.254 147.504 217.163C191.875 202.454 223.849 160.82 223.849 111.743C223.849 50.3772 173.824 0.631714 112.118 0.631714Z" fill="#666666"/>
</svg>
