<svg width="757" height="575" viewBox="0 0 757 575" fill="none" xmlns="http://www.w3.org/2000/svg">
<path d="M364.121 4.03792C373.339 -1.33383 385.347 -1.3581 394.558 4.03792C440.896 30.6932 487.249 57.3066 533.58 83.978C542.294 88.975 548.123 98.8477 548.034 109.07V269.438C548.099 280.083 541.694 290.191 532.501 295.075C486.314 321.583 440.152 348.124 393.974 374.632C384.564 380.109 372.316 379.687 363.2 373.762C349.354 365.59 335.483 357.459 321.636 349.296C318.806 347.578 315.616 346.211 313.618 343.418C315.384 340.995 318.542 340.693 321.109 339.634C326.888 337.763 332.197 334.76 337.507 331.846C338.849 330.91 340.489 331.269 341.776 332.106C353.616 339.017 365.352 346.129 377.232 352.974C379.767 354.464 382.333 352.486 384.499 351.257C429.822 325.18 475.201 299.201 520.516 273.116C522.195 272.294 523.123 270.48 522.987 268.607C523.018 215.705 522.995 162.794 523.003 109.892C523.195 107.767 521.987 105.814 520.1 104.945C474.074 78.5577 428.072 52.1303 382.054 25.7366C381.256 25.1786 380.312 24.8792 379.344 24.8777C378.377 24.8763 377.432 25.1729 376.633 25.7285C330.615 52.1303 284.62 78.582 238.602 104.968C236.722 105.838 235.46 107.759 235.684 109.892C235.692 162.794 235.684 215.705 235.684 268.615C235.604 269.529 235.801 270.446 236.249 271.242C236.696 272.038 237.372 272.675 238.186 273.068C250.467 280.157 262.763 287.196 275.051 294.261C281.973 298.054 290.473 300.308 298.1 297.402C304.831 294.944 309.549 287.952 309.42 280.677C309.484 228.084 309.388 175.483 309.468 122.897C309.3 120.563 311.475 118.634 313.705 118.853C319.606 118.813 325.514 118.772 331.414 118.869C333.877 118.813 335.572 121.327 335.268 123.679C335.244 176.605 335.331 229.533 335.228 282.459C335.244 296.565 329.551 311.913 316.735 318.815C300.946 327.141 281.43 325.375 265.832 317.391C252.328 310.53 239.442 302.433 226.178 295.082C216.96 290.225 210.587 280.076 210.652 269.439V109.07C210.555 98.6361 216.616 88.5841 225.602 83.6599C271.78 57.13 317.95 30.5799 364.121 4.03792Z" fill="#999999"/>
<path d="M404.407 115.126C424.547 113.806 446.108 114.344 464.232 124.445C478.264 132.185 486.043 148.429 486.291 164.299C485.899 166.44 483.701 167.621 481.693 167.474C475.85 167.466 470.005 167.555 464.162 167.433C461.683 167.53 460.242 165.204 459.931 162.973C458.252 155.38 454.184 147.859 447.164 144.197C436.386 138.704 423.89 138.98 412.139 139.095C403.559 139.558 394.334 140.314 387.066 145.45C381.486 149.341 379.791 157.194 381.782 163.519C383.66 168.06 388.81 169.526 393.023 170.876C417.295 177.339 443.015 176.696 466.823 185.2C476.68 188.667 486.323 195.407 489.696 205.913C494.11 219.994 492.175 236.825 482.334 248.13C474.354 257.432 462.73 262.495 451.137 265.245C435.715 268.746 419.71 268.835 404.048 267.281C389.321 265.571 373.995 261.633 362.626 251.418C352.904 242.824 348.156 229.434 348.627 216.511C348.74 214.329 350.874 212.807 352.928 212.986C358.813 212.938 364.697 212.922 370.582 212.994C372.932 212.823 374.674 214.891 374.795 217.146C375.881 224.381 378.552 231.974 384.749 236.263C396.708 244.118 411.715 243.58 425.409 243.8C436.754 243.288 449.49 243.133 458.749 235.499C463.633 231.145 465.081 223.86 463.76 217.594C462.33 212.303 456.893 209.837 452.224 208.225C428.264 200.509 402.256 203.309 378.528 194.583C368.895 191.118 359.579 184.565 355.878 174.49C350.714 160.231 353.08 142.594 363.953 131.671C374.554 120.806 389.857 116.622 404.407 115.125V115.126Z" fill="#999999"/>
<path d="M244.064 511.412C244.064 532.141 244.064 552.87 244.064 574.44C241.123 574.58 238.461 574.72 235.24 575C235.24 520.096 235.24 465.891 235.24 410.847C237.761 410.707 240.422 410.427 243.924 410.287C243.924 418.69 243.924 426.394 243.924 434.097C244.484 434.517 245.184 434.798 245.745 435.218C246.445 433.957 247.145 432.697 247.846 431.436C263.813 399.082 317.037 399.082 335.105 433.537C347.99 458.048 347.71 483.679 335.805 508.471C329.082 522.337 317.177 530.74 301.91 532.701C293.226 533.822 283.982 533.822 275.438 532.421C262.412 530.46 252.188 523.177 246.445 510.571C245.465 510.852 244.764 511.132 244.064 511.412ZM243.084 470.514C243.504 470.654 243.924 470.794 244.344 470.934C245.044 477.237 245.184 483.539 246.305 489.702C250.087 510.431 263.393 523.177 283.281 525.558C303.871 527.939 321.939 517.715 329.502 498.526C337.626 477.797 337.066 457.068 326.141 437.319C317.597 421.772 303.731 415.609 286.223 416.449C269.695 417.15 257.65 424.853 251.207 439.7C247.005 449.364 245.605 460.149 243.084 470.514Z" fill="#999999"/>
<path d="M10.4386 472.475C10.2986 501.468 24.725 521.497 47.8354 525.139C71.5059 528.781 85.9324 519.396 99.0983 490.683C101.479 490.683 104 490.683 106.382 490.683C106.802 491.664 107.362 492.364 107.222 492.925C98.538 525.979 70.6656 541.806 38.031 532.142C24.585 528.08 14.0803 519.957 8.19762 507.211C-3.14745 482.42 -3.00739 457.209 10.4386 433.398C23.7446 409.867 44.4739 405.385 66.6038 408.607C86.7728 411.548 103.02 428.776 107.222 450.766C108.482 457.489 108.623 464.492 109.463 472.615C75.7078 472.475 43.2133 472.475 10.4386 472.475ZM11.8393 463.651C40.5521 463.651 69.405 463.651 98.1178 463.651C99.0983 437.46 81.4504 417.851 58.2 416.31C33.549 414.77 10.8588 435.919 11.8393 463.651Z" fill="#999999"/>
<path d="M431.467 472.614C431.326 501.747 444.772 521.076 467.883 524.577C489.733 527.939 509.762 521.496 519.286 490.822C521.807 490.682 524.608 490.542 527.269 490.402C527.69 491.662 528.11 492.363 527.97 492.923C520.967 521.776 502.058 535.502 471.945 533.961C444.632 532.561 425.724 514.072 422.222 484.799C420.262 467.572 421.522 450.764 430.066 435.077C440.851 415.188 460.179 405.524 484.13 408.045C503.739 410.006 521.107 424.853 526.569 445.442C528.81 453.845 529.09 462.81 530.491 472.754C512.563 472.754 496.316 472.754 480.068 472.754C464.241 472.614 448.414 472.614 431.467 472.614ZM431.887 463.65C461.16 463.65 490.293 463.65 519.426 463.65C519.426 437.878 503.039 418.27 481.469 416.449C452.476 414.068 433.147 435.917 431.887 463.65Z" fill="#999999"/>
<path d="M753.051 446.566C749.409 446.285 747.028 446.145 744.647 446.005C740.725 424.576 730.921 416.312 709.491 416.592C702.208 416.732 694.645 417.573 687.782 419.954C679.378 422.895 673.495 429.338 673.355 439.142C673.215 449.227 679.238 455.249 687.782 458.191C696.746 461.412 706.41 463.093 715.654 465.614C723.498 467.715 731.621 469.396 739.045 472.337C749.969 476.679 755.852 485.083 756.832 496.988C757.813 509.734 753.751 520.098 742.406 525.981C721.677 536.766 700.247 537.326 679.518 526.541C666.352 519.678 660.329 507.633 659.909 491.946C662.991 491.946 665.652 491.946 668.313 491.946C676.016 522.059 707.951 535.225 735.123 519.818C743.106 515.336 747.869 508.753 747.588 499.089C747.308 489.705 742.126 483.542 734.002 480.601C724.618 477.239 714.814 475.278 705.289 472.337C696.185 469.536 686.661 467.295 677.977 463.373C658.929 454.829 658.368 423.175 678.958 413.651C697.446 405.107 716.494 404.407 734.843 413.091C747.728 419.393 753.471 430.879 753.051 446.566Z" fill="#999999"/>
<path d="M546.178 492.225C548.979 492.085 551.64 491.944 554.862 491.664C556.823 506.091 563.686 516.455 576.852 521.778C591.838 527.8 606.685 526.82 621.111 519.957C629.515 516.035 633.997 509.032 633.857 499.508C633.717 490.264 628.815 483.821 620.551 480.739C610.887 477.238 600.662 475.277 590.718 472.336C582.174 469.815 573.49 467.714 565.507 464.212C554.582 459.45 549.96 450.066 550.1 438.16C550.24 426.535 555.842 417.991 566.067 413.509C583.855 405.526 602.343 404.825 620.131 412.809C633.437 418.832 639.6 430.317 639.32 446.004C636.378 446.144 633.577 446.284 631.056 446.424C626.854 424.714 617.47 416.451 596.04 416.731C588.057 416.871 579.793 418.412 572.37 421.073C564.106 424.014 559.484 430.877 559.624 440.121C559.904 448.945 564.946 454.968 572.79 457.629C582.594 460.991 592.819 462.951 602.763 465.893C611.307 468.274 619.991 470.515 628.115 474.016C646.323 481.58 649.544 512.534 630.916 525.139C613.828 536.764 579.793 537.045 562.985 525.279C552.341 517.856 547.859 509.032 546.178 492.225Z" fill="#999999"/>
<path d="M173.191 467.853C189.159 489.003 204.425 509.312 220.673 530.881C216.331 531.162 212.969 531.442 208.767 531.722C195.181 513.374 181.595 494.885 167.029 475.136C152.742 494.045 139.016 512.113 124.87 530.881C121.788 530.881 118.287 530.881 113.105 530.881C129.072 509.592 144.339 489.283 160.306 467.853C145.879 448.945 131.313 430.036 116.186 410.287C121.228 410.287 125.01 410.287 128.932 410.287C141.397 426.675 153.863 443.202 166.889 460.43C179.914 443.342 192.24 427.095 204.846 410.568C208.347 410.568 211.849 410.568 216.751 410.568C202.044 429.896 187.898 448.384 173.191 467.853Z" fill="#999999"/>
<path d="M377.543 430.179C389.308 415.753 401.354 410.15 420.682 410.43C420.962 412.671 421.242 415.053 421.523 417.574C420.122 418.134 419.141 418.974 418.161 418.974C396.451 417.714 374.041 436.202 373.901 463.514C373.761 482.843 373.761 502.172 373.761 521.5C373.761 524.441 373.761 527.383 373.761 530.884C370.4 530.884 367.738 530.884 364.657 530.884C364.657 490.826 364.657 451.329 364.657 410.851C367.458 410.711 370.12 410.571 373.761 410.43C373.761 417.434 373.761 423.736 373.761 430.039C373.761 431.86 373.761 433.681 373.761 435.502C374.321 435.642 374.742 435.642 375.302 435.782C376.002 433.821 376.703 432 377.543 430.179Z" fill="#999999"/>
</svg>
