<svg width="224" height="224" viewBox="0 0 224 224" fill="none" xmlns="http://www.w3.org/2000/svg">
<path d="M223.849 0.888916H0.385483V223.111H223.849V0.888916Z" fill="#888888"/>
<path d="M150.496 174.501C154.997 181.81 160.854 187.182 171.211 187.182C179.912 187.182 185.47 182.857 185.47 176.882C185.47 169.721 179.759 167.185 170.182 163.019L164.933 160.78C149.78 154.36 139.713 146.317 139.713 129.316C139.713 113.654 151.713 101.732 170.466 101.732C183.817 101.732 193.415 106.353 200.332 118.452L183.98 128.892C180.38 122.473 176.496 119.944 170.466 119.944C164.316 119.944 160.417 123.824 160.417 128.892C160.417 135.157 164.319 137.693 173.329 141.573L178.578 143.81C196.42 151.418 206.493 159.175 206.493 176.614C206.493 195.414 191.642 205.714 171.697 205.714C152.195 205.714 139.596 196.473 133.431 184.36L150.496 174.501ZM76.317 176.31C79.6157 182.131 82.6165 187.051 89.8312 187.051C96.7302 187.051 101.082 184.367 101.082 173.929V102.924H122.081V174.212C122.081 195.834 109.333 205.676 90.7251 205.676C73.9121 205.676 64.1755 197.023 59.2238 186.601L76.317 176.31Z" fill="white"/>
</svg>
