<svg width="225" height="224" viewBox="0 0 225 224" fill="none" xmlns="http://www.w3.org/2000/svg">
<path d="M219.869 102.099L122.303 5.07992C116.688 -0.507758 107.575 -0.507758 101.952 5.07992L81.6921 25.2275L107.393 50.7856C113.365 48.7787 120.214 50.1251 124.975 54.8594C129.759 59.6242 131.103 66.4931 129.036 72.4514L153.804 97.0834C159.797 95.0304 166.711 96.3586 171.497 101.126C178.186 107.775 178.186 118.552 171.497 125.206C164.807 131.86 153.969 131.86 147.275 125.206C142.244 120.197 141.001 112.849 143.548 106.685L120.449 83.7145L120.446 144.163C122.121 144.987 123.65 146.074 124.975 147.384C131.664 154.033 131.664 164.811 124.975 171.47C118.284 178.121 107.442 178.121 100.761 171.47C94.0716 164.811 94.0716 154.034 100.761 147.385C102.364 145.79 104.269 144.527 106.366 143.668V82.6563C104.266 81.8038 102.36 80.54 100.761 78.9402C95.6926 73.9072 94.474 66.5122 97.0709 60.3238L71.7357 35.1268L4.83626 101.65C-0.785245 107.243 -0.785245 116.306 4.83626 121.895L102.404 218.916C108.021 224.504 117.133 224.504 122.757 218.916L219.869 122.346C225.488 116.755 225.488 107.687 219.869 102.099" fill="#999999"/>
</svg>
