<svg width="224" height="168" viewBox="0 0 224 168" fill="none" xmlns="http://www.w3.org/2000/svg">
<path d="M192.24 96.4759C184.487 96.5165 177.749 98.3836 172.107 101.144C170.037 97.0441 167.967 93.391 167.602 90.7121C167.196 87.5867 166.709 85.679 167.196 81.9447C167.683 78.2105 169.875 72.8932 169.834 72.4873C169.794 72.0814 169.347 70.1737 164.882 70.1331C160.417 70.0925 156.561 70.9855 156.115 72.1626C155.668 73.3397 154.816 76.0186 154.248 78.7787C153.476 82.8377 145.318 97.3282 140.65 104.919C139.148 101.955 137.849 99.3577 137.565 97.2877C137.159 94.1622 136.672 92.2545 137.159 88.5203C137.646 84.786 139.838 79.4688 139.798 79.0629C139.757 78.657 139.311 76.7492 134.846 76.7087C130.381 76.6681 126.525 77.561 126.078 78.7381C125.632 79.9152 125.145 82.6754 124.211 85.3543C123.278 88.0332 112.44 112.225 109.599 118.476C108.138 121.682 106.879 124.239 105.986 125.985C105.986 125.985 105.946 126.106 105.824 126.309C105.053 127.811 104.606 128.623 104.606 128.623C104.606 128.623 104.606 128.623 104.606 128.664C103.998 129.759 103.348 130.774 103.023 130.774C102.78 130.774 102.333 127.852 103.105 123.874C104.728 115.472 108.584 102.402 108.544 101.955C108.544 101.712 109.274 99.4389 106.027 98.2618C102.861 97.0847 101.725 99.033 101.44 99.033C101.156 99.033 100.953 99.723 100.953 99.723C100.953 99.723 104.485 85.0296 94.2154 85.0296C87.8022 85.0296 78.9537 92.0516 74.57 98.3836C71.8099 99.8854 65.9243 103.092 59.6329 106.542C57.2381 107.882 54.7622 109.221 52.4485 110.479C52.2862 110.317 52.1238 110.114 51.9615 109.952C39.541 96.6788 16.5672 87.3026 17.5414 69.4837C17.9067 62.9893 20.1391 45.9416 61.6624 25.2408C95.839 8.3961 123.034 13.0639 127.743 23.4143C134.48 38.189 113.171 65.6277 77.8577 69.6054C64.3819 71.1073 57.3193 65.9118 55.5334 63.9635C53.6662 61.934 53.3821 61.8122 52.6921 62.2181C51.5556 62.827 52.2862 64.6535 52.6921 65.7088C53.7474 68.4689 58.0905 73.3397 65.4373 75.7345C71.9316 77.8452 87.721 79.0223 106.839 71.6349C128.23 63.3546 144.953 40.3402 140.041 21.0601C135.13 1.49584 102.658 -4.95793 71.9316 5.96071C53.6662 12.4551 33.8584 22.6837 19.6114 35.9971C2.6855 51.8271 0.00658386 65.5871 1.10251 71.3508C5.03971 91.808 33.2496 105.121 44.5335 114.985C43.9653 115.31 43.4376 115.594 42.9911 115.837C37.3492 118.638 15.8366 129.881 10.4787 141.774C4.39028 155.25 11.4529 164.91 16.1207 166.209C30.6113 170.227 45.5077 163.002 53.5039 151.069C61.5001 139.136 60.5259 123.63 56.8322 116.527C56.7916 116.446 56.7511 116.365 56.6699 116.284C58.1311 115.431 59.6329 114.538 61.0942 113.686C63.976 111.981 66.8173 110.398 69.2527 109.099C67.8726 112.874 66.8579 117.38 66.3708 123.874C65.762 131.505 68.8874 141.409 72.987 145.305C74.8135 147.01 76.9648 147.051 78.3448 147.051C83.1344 147.051 85.2857 143.073 87.6804 138.364C90.6029 132.601 93.2412 125.903 93.2412 125.903C93.2412 125.903 89.9535 144.006 98.8832 144.006C102.13 144.006 105.418 139.785 106.879 137.634C106.879 137.674 106.879 137.674 106.879 137.674C106.879 137.674 106.961 137.553 107.123 137.269C107.448 136.741 107.651 136.416 107.651 136.416C107.651 136.416 107.651 136.376 107.651 136.335C108.949 134.062 111.872 128.907 116.215 120.343C121.816 109.302 127.215 95.5017 127.215 95.5017C127.215 95.5017 127.702 98.8707 129.366 104.472C130.34 107.76 132.37 111.372 133.993 114.863C132.694 116.69 131.883 117.704 131.883 117.704C131.883 117.704 131.883 117.704 131.923 117.745C130.868 119.125 129.731 120.627 128.473 122.088C124.049 127.365 118.772 133.413 118.042 135.158C117.189 137.228 117.392 138.73 119.016 139.947C120.193 140.84 122.303 140.962 124.455 140.84C128.433 140.556 131.233 139.582 132.613 138.973C134.765 138.202 137.281 137.025 139.635 135.28C143.978 132.073 146.617 127.486 146.373 121.439C146.251 118.11 145.156 114.782 143.816 111.656C144.222 111.088 144.587 110.52 144.993 109.952C151.853 99.926 157.17 88.9262 157.17 88.9262C157.17 88.9262 157.657 92.2951 159.321 97.8965C160.133 100.738 161.797 103.823 163.259 106.826C156.805 112.062 152.827 118.151 151.406 122.129C148.849 129.516 150.838 132.844 154.613 133.615C156.318 133.981 158.753 133.169 160.539 132.398C162.812 131.667 165.491 130.409 168.048 128.542C172.391 125.335 176.572 120.87 176.328 114.822C176.207 112.062 175.476 109.343 174.461 106.704C179.941 104.431 187.004 103.173 196.015 104.229C215.335 106.502 219.151 118.557 218.42 123.63C217.689 128.704 213.63 131.464 212.291 132.317C210.952 133.169 210.505 133.453 210.627 134.062C210.789 134.955 211.439 134.914 212.575 134.752C214.158 134.468 222.723 130.652 223.088 121.317C223.697 109.383 212.332 96.3541 192.24 96.4759ZM43.1941 146.726C36.7809 153.707 27.8512 156.346 23.9951 154.113C19.855 151.719 21.4786 141.409 29.353 134.021C34.1426 129.516 40.3122 125.335 44.4118 122.778C45.3453 122.21 46.7254 121.398 48.3896 120.383C48.6737 120.221 48.8361 120.14 48.8361 120.14C49.1608 119.937 49.4855 119.734 49.8102 119.531C52.6921 130.084 49.932 139.379 43.1941 146.726ZM89.8723 114.985C87.6399 120.424 82.972 134.346 80.1308 133.575C77.6954 132.925 76.1935 122.372 79.6437 111.941C81.389 106.704 85.0827 100.454 87.234 98.0183C90.7247 94.1217 94.5807 92.8228 95.5143 94.4058C96.6914 96.4759 91.2523 111.575 89.8723 114.985ZM128.392 133.413C127.458 133.9 126.565 134.224 126.16 133.981C125.875 133.818 126.565 133.169 126.565 133.169C126.565 133.169 131.396 127.974 133.303 125.619C134.399 124.239 135.698 122.616 137.078 120.789C137.078 120.951 137.078 121.154 137.078 121.317C137.078 127.527 131.071 131.708 128.392 133.413ZM158.104 126.634C157.414 126.147 157.535 124.523 159.849 119.45C160.742 117.461 162.853 114.132 166.465 110.926C166.871 112.225 167.155 113.483 167.115 114.66C167.074 122.494 161.473 125.416 158.104 126.634Z" fill="#999999"/>
</svg>
