<svg width="175" height="197" viewBox="0 0 175 197" fill="none" xmlns="http://www.w3.org/2000/svg">
<path d="M79.6042 2.09446C84.3859 -0.691856 90.6141 -0.704441 95.3917 2.09446C119.427 15.9204 143.471 29.7247 167.502 43.5591C172.022 46.151 175.046 51.272 174.999 56.574V139.756C175.033 145.278 171.711 150.521 166.942 153.054C142.986 166.804 119.041 180.571 95.0888 194.321C90.2082 197.161 83.855 196.943 79.1269 193.869C71.9447 189.63 64.7502 185.413 57.5673 181.178C56.0995 180.288 54.4449 179.579 53.4085 178.13C54.3248 176.873 55.9628 176.716 57.2939 176.167C60.2919 175.197 63.0454 173.639 65.7996 172.127C66.4961 171.642 67.3464 171.828 68.014 172.262C74.1556 175.847 80.243 179.536 86.4052 183.087C87.7198 183.859 89.0509 182.833 90.1746 182.196C113.683 168.67 137.221 155.195 160.726 141.665C161.597 141.238 162.078 140.297 162.007 139.326C162.024 111.886 162.012 84.4406 162.016 57.0005C162.115 55.8986 161.489 54.8854 160.51 54.4345C136.637 40.7476 112.775 27.0398 88.906 13.3495C88.4924 13.06 88.0025 12.9047 87.5007 12.904C86.9988 12.9032 86.5085 13.0571 86.0941 13.3453C62.2247 27.0398 38.3676 40.7602 14.4982 54.4463C13.5229 54.898 12.8684 55.8944 12.9844 57.0005C12.9886 84.4406 12.9844 111.886 12.9844 139.33C12.943 139.804 13.0453 140.279 13.2774 140.692C13.5095 141.105 13.8603 141.436 14.2825 141.639C20.6522 145.316 27.0301 148.968 33.4039 152.632C36.9947 154.6 41.4034 155.769 45.3596 154.261C48.8507 152.987 51.2979 149.36 51.2313 145.586C51.2642 118.306 51.2148 91.0222 51.256 63.7464C51.1688 62.5354 52.2972 61.5348 53.4539 61.6488C56.5144 61.6278 59.579 61.6069 62.6395 61.6572C63.917 61.6278 64.7962 62.9318 64.6382 64.1519C64.6258 91.6046 64.6712 119.058 64.6176 146.511C64.6258 153.827 61.6732 161.788 55.0253 165.368C46.8356 169.687 36.7131 168.771 28.6222 164.63C21.6179 161.071 14.9337 156.871 8.05368 153.058C3.27265 150.539 -0.0330635 145.275 0.000591155 139.757V56.574C-0.0495475 51.1622 3.09408 45.9483 7.75491 43.3941C31.7074 29.6331 55.6558 15.8617 79.6042 2.09446Z" fill="#999999"/>
<path d="M100.5 59.7155C110.947 59.031 122.131 59.3099 131.531 64.549C138.81 68.5638 142.845 76.9899 142.973 85.2216C142.77 86.3319 141.63 86.9444 140.589 86.8682C137.558 86.864 134.526 86.9102 131.495 86.8472C130.209 86.8976 129.462 85.6908 129.301 84.5336C128.43 80.595 126.32 76.6941 122.678 74.7944C117.088 71.9452 110.606 72.0885 104.511 72.148C100.061 72.3885 95.2757 72.7807 91.5057 75.4447C88.6114 77.4626 87.7323 81.5361 88.7653 84.8168C89.7392 87.1724 92.4103 87.9324 94.5958 88.633C107.185 91.9849 120.526 91.6514 132.876 96.0627C137.988 97.861 142.99 101.357 144.74 106.807C147.029 114.11 146.026 122.841 140.921 128.704C136.782 133.529 130.753 136.156 124.739 137.582C116.74 139.398 108.438 139.444 100.314 138.638C92.6754 137.751 84.726 135.708 78.8289 130.409C73.7862 125.952 71.3232 119.007 71.5677 112.304C71.6261 111.172 72.7333 110.382 73.7985 110.475C76.8508 110.45 79.9031 110.442 82.9554 110.479C84.1745 110.391 85.0784 111.463 85.1409 112.633C85.7041 116.386 87.0894 120.324 90.3038 122.549C96.5072 126.623 104.291 126.344 111.394 126.458C117.279 126.193 123.885 126.112 128.687 122.153C131.221 119.894 131.972 116.116 131.287 112.865C130.545 110.121 127.725 108.842 125.303 108.006C112.875 104.003 99.385 105.456 87.077 100.93C82.0803 99.1322 77.2485 95.7334 75.3288 90.5075C72.6502 83.1114 73.8775 73.9631 79.5171 68.2975C85.0159 62.6619 92.9536 60.4916 100.5 59.7148V59.7155Z" fill="#999999"/>
</svg>
