<svg width="149" height="224" viewBox="0 0 149 224" fill="none" xmlns="http://www.w3.org/2000/svg">
<path d="M37.1976 223.111C57.6421 223.111 74.2347 206.519 74.2347 186.074V149.037H37.1976C16.7532 149.037 0.160583 165.63 0.160583 186.074C0.160583 206.519 16.7532 223.111 37.1976 223.111Z" fill="#999999"/>
<path d="M0.160583 112C0.160583 91.5555 16.7532 74.9629 37.1976 74.9629H74.2347V149.037H37.1976C16.7532 149.037 0.160583 132.444 0.160583 112Z" fill="#555555"/>
<path d="M0.160583 37.9259C0.160583 17.4815 16.7532 0.888916 37.1976 0.888916H74.2347V74.963H37.1976C16.7532 74.963 0.160583 58.3704 0.160583 37.9259Z" fill="#333333"/>
<path d="M74.2346 0.888916H111.272C131.716 0.888916 148.309 17.4815 148.309 37.9259C148.309 58.3704 131.716 74.963 111.272 74.963H74.2346V0.888916Z" fill="#494949"/>
<path d="M148.309 112C148.309 132.444 131.716 149.037 111.272 149.037C90.8272 149.037 74.2346 132.444 74.2346 112C74.2346 91.5555 90.8272 74.9629 111.272 74.9629C131.716 74.9629 148.309 91.5555 148.309 112Z" fill="#777777"/>
</svg>
