<svg width="223" height="212" viewBox="0 0 223 212" fill="none" xmlns="http://www.w3.org/2000/svg">
<path d="M154.1 147.854C162.301 147.005 168.522 139.936 168.239 131.451C167.957 122.968 160.887 116.181 152.403 116.181H151.838C143.071 116.464 136.284 123.816 136.567 132.583C136.85 136.825 138.546 140.501 141.091 143.046C131.477 161.994 116.772 175.851 94.7147 187.445C79.7268 195.364 64.1738 198.192 48.6209 196.213C35.8951 194.516 25.9976 188.86 19.7753 179.527C10.7267 165.67 9.87862 150.682 17.514 135.694C22.8873 124.947 31.37 117.029 36.7432 113.07C35.6122 109.393 33.9151 103.172 33.067 98.6477C-7.93737 128.341 -3.69518 168.498 8.74754 187.445C18.0792 201.586 37.0262 210.353 57.9525 210.353C63.6078 210.353 69.2632 209.787 74.9195 208.373C111.117 201.303 138.547 179.81 154.1 147.854V147.854ZM203.871 112.787C182.379 87.6182 150.707 73.7614 114.51 73.7614H109.986C107.44 68.6711 102.067 65.277 96.1287 65.277H95.5627C86.7971 65.56 80.0106 72.9124 80.2928 81.6798C80.5758 90.1633 87.6452 96.9506 96.1287 96.9506H96.6938C102.915 96.6676 108.288 92.7084 110.551 87.3352H115.641C137.133 87.3352 157.493 93.5565 175.875 105.717C190.014 115.05 200.195 127.21 205.85 141.915C210.657 153.793 210.375 165.387 205.284 175.286C197.367 190.274 184.076 198.475 166.543 198.475C155.231 198.475 144.486 195.081 138.829 192.536C135.719 195.364 130.063 199.888 126.104 202.717C138.264 208.372 150.707 211.484 162.584 211.484C189.731 211.484 209.809 196.495 217.445 181.507C225.645 165.104 225.079 136.825 203.871 112.787V112.787ZM60.2146 152.661C60.4976 161.145 67.5671 167.932 76.0506 167.932H76.6165C85.383 167.649 92.1695 160.296 91.8865 151.53C91.6044 143.045 84.5341 136.259 76.0506 136.259H75.4855C74.9195 136.259 74.0705 136.259 73.5063 136.541C61.9117 117.311 57.1044 96.3846 58.8014 73.7605C59.9316 56.7926 65.5879 42.0869 75.4855 29.9263C83.686 19.4628 99.522 14.3725 110.268 14.0904C140.243 13.5244 152.968 50.8534 153.817 65.8421C157.493 66.6902 163.715 68.6702 167.957 70.0843C164.563 24.2718 136.284 0.516602 109.137 0.516602C83.686 0.516602 60.2146 18.8985 50.8821 46.047C37.8743 82.2449 46.3578 117.029 62.1938 144.46C60.7806 146.439 59.9316 149.55 60.2146 152.662V152.661Z" fill="#999999"/>
</svg>
