<svg width="102" height="224" viewBox="0 0 102 224" fill="none" xmlns="http://www.w3.org/2000/svg">
<path d="M50.4179 1.49585L56.3812 12.6339C57.7219 14.6893 59.1743 16.5086 60.8851 18.2029C65.9007 23.1284 70.5758 28.3854 74.8785 33.9379C84.9825 47.1313 91.7977 61.783 96.6647 77.6291C99.5835 87.3089 101.169 97.2387 101.287 107.28C101.776 137.298 91.4276 163.074 70.5632 184.496C67.1693 187.893 63.5029 191.01 59.6002 193.815C57.5334 193.815 56.5558 192.239 55.7039 190.787C54.1525 188.096 53.12 185.141 52.6594 182.073C51.9262 178.441 51.4444 174.809 51.6818 171.06V169.365C51.5142 169.004 49.6917 2.34995 50.4179 1.49585V1.49585Z" fill="#777777"/>
<path d="M50.418 1.12781C50.1736 0.641733 49.9292 1.00976 49.6848 1.24586C49.8035 3.67623 48.9516 5.84274 47.6179 7.91203C46.1516 9.96743 44.2104 11.5437 42.2622 13.238C31.439 22.5568 22.92 33.8129 16.0979 46.4022C7.02033 63.3454 2.3419 81.5038 1.01518 100.62C0.407678 107.516 3.20775 131.847 5.39335 138.868C11.3566 157.505 22.0681 173.122 35.9428 186.677C39.3504 189.94 42.9954 192.968 46.7661 195.877C47.8623 195.877 47.9811 194.905 48.2324 194.183C48.7131 192.638 49.0795 191.06 49.3287 189.461L51.7727 171.31L50.418 1.12781Z" fill="#999999"/>
<path d="M56.3812 201.189C56.6256 198.412 57.9663 196.106 59.4257 193.808C57.9593 193.204 56.87 192.002 56.0181 190.662C55.2835 189.393 54.6755 188.056 54.2026 186.67C52.4988 181.587 52.1357 176.254 51.6469 171.06V167.914C51.0394 168.4 50.9137 172.511 50.9137 173.122C50.5584 178.612 49.8258 184.071 48.7212 189.461C48.3581 191.641 48.1137 193.815 46.766 195.752C46.766 195.995 46.766 196.238 46.8847 196.599C49.0773 203.015 49.6778 209.55 50.0479 216.209V218.639C50.0479 221.542 49.9292 220.931 52.3522 221.903C53.3298 222.264 54.4191 222.389 55.3967 223.111C56.1299 223.111 56.2486 222.507 56.2486 222.021L55.8855 218.028V206.89C55.7667 204.946 56.1298 203.015 56.3742 201.196L56.3812 201.189Z" fill="#C2BFBF"/>
</svg>
