<svg width="226" height="242" viewBox="0 0 226 242" fill="none" xmlns="http://www.w3.org/2000/svg">
<path d="M113.117 140.592C123.998 140.592 132.818 131.82 132.818 121C132.818 110.18 123.998 101.408 113.117 101.408C102.237 101.408 93.4163 110.18 93.4163 121C93.4163 131.82 102.237 140.592 113.117 140.592Z" fill="#999999"/>
<path fill-rule="evenodd" clip-rule="evenodd" d="M20.4832 110.691C16.0156 114.702 14.5471 118.199 14.5471 121C14.5471 123.801 16.0156 127.298 20.4832 131.309C24.9479 135.317 31.8115 139.253 40.9024 142.705C59.0339 149.589 84.5639 153.996 113.117 153.996C141.671 153.996 167.201 149.589 185.332 142.705C194.423 139.253 201.287 135.317 205.751 131.309C210.219 127.298 211.688 123.801 211.688 121C211.688 118.199 210.219 114.702 205.751 110.691C201.287 106.684 194.423 102.747 185.332 99.2952C167.201 92.4107 141.671 88.004 113.117 88.004C84.5639 88.004 59.0339 92.4107 40.9024 99.2952C31.8115 102.747 24.9479 106.684 20.4832 110.691ZM35.8314 85.9398C55.9604 78.2969 83.287 73.7183 113.117 73.7183C142.948 73.7183 170.274 78.2969 190.403 85.9398C200.443 89.7518 209.06 94.4645 215.295 100.061C221.526 105.655 225.973 112.717 225.973 121C225.973 129.283 221.526 136.346 215.295 141.939C209.06 147.536 200.443 152.248 190.403 156.06C170.274 163.703 142.948 168.282 113.117 168.282C83.287 168.282 55.9604 163.703 35.8314 156.06C25.7919 152.248 17.1742 147.536 10.9401 141.939C4.70902 136.346 0.261353 129.283 0.261353 121C0.261353 112.717 4.70902 105.655 10.9401 100.061C17.1742 94.4645 25.7919 89.7518 35.8314 85.9398Z" fill="#999999"/>
<path fill-rule="evenodd" clip-rule="evenodd" d="M75.8351 36.0831C70.1158 34.2431 66.3167 34.7176 63.847 36.1355C61.3773 37.5535 59.0645 40.5881 57.8072 46.4337C56.5499 52.2796 56.5535 60.1534 58.092 69.7024C61.1606 88.7492 70.0837 112.93 84.3561 137.513C98.6285 162.096 115.225 181.871 130.278 194.037C137.824 200.137 144.679 204.077 150.399 205.917C156.119 207.757 159.918 207.282 162.387 205.864C164.857 204.446 167.17 201.412 168.427 195.566C169.684 189.72 169.681 181.846 168.142 172.297C165.074 153.251 156.151 129.07 141.878 104.487C127.606 79.9037 111.009 60.1288 95.9567 47.9627C88.41 41.8633 81.5548 37.9232 75.8351 36.0831ZM104.962 36.9023C121.691 50.4231 139.348 71.6763 154.267 97.3739C169.187 123.072 178.867 148.905 182.277 170.072C183.978 180.63 184.183 190.414 182.425 198.584C180.668 206.755 176.743 214.095 169.56 218.219C162.377 222.343 154.022 222.053 146.028 219.481C138.035 216.91 129.617 211.842 121.273 205.097C104.544 191.577 86.8866 170.324 71.9671 144.626C57.0477 118.928 47.3676 93.0952 43.9573 71.9276C42.2563 61.3694 42.0516 51.5859 43.8089 43.4158C45.5663 35.2452 49.4912 27.9051 56.6743 23.781C63.8573 19.6569 72.212 19.9468 80.2061 22.5186C88.1998 25.0902 96.6176 30.1583 104.962 36.9023Z" fill="#999999"/>
<path fill-rule="evenodd" clip-rule="evenodd" d="M168.427 46.4336C167.17 40.5881 164.857 37.5535 162.387 36.1355C159.918 34.7175 156.119 34.2431 150.399 36.0831C144.68 37.9232 137.824 41.8632 130.278 47.9626C115.225 60.1287 98.6286 79.9037 84.3562 104.487C70.0838 129.07 61.1606 153.251 58.092 172.297C56.5536 181.846 56.5499 189.72 57.8073 195.566C59.0646 201.412 61.3774 204.446 63.8471 205.864C66.3168 207.282 70.1159 207.757 75.8352 205.917C81.5549 204.077 88.4101 200.137 95.9568 194.037C111.01 181.871 127.606 162.096 141.878 137.513C156.151 112.93 165.074 88.7491 168.142 69.7024C169.681 60.1534 169.685 52.2796 168.427 46.4336ZM182.277 71.9276C178.867 93.0951 169.187 118.928 154.267 144.626C139.348 170.324 121.691 191.577 104.962 205.097C96.6177 211.841 88.1999 216.91 80.2062 219.481C72.2121 222.053 63.8574 222.343 56.6743 218.219C49.4913 214.095 45.5664 206.755 43.809 198.584C42.0517 190.414 42.2564 180.63 43.9574 170.072C47.3677 148.905 57.0478 123.072 71.9672 97.3739C86.8867 71.6762 104.544 50.4231 121.273 36.9023C129.617 30.1583 138.035 25.0902 146.028 22.5185C154.022 19.9468 162.377 19.6569 169.56 23.781C176.743 27.9051 180.668 35.2452 182.426 43.4158C184.183 51.5859 183.978 61.3694 182.277 71.9276Z" fill="#999999"/>
</svg>
