<svg width="251" height="137" viewBox="0 0 251 137" fill="none" xmlns="http://www.w3.org/2000/svg">
<path d="M77.3964 91.4213C64.9768 91.4213 54.8536 81.2176 54.8536 68.7087C54.8536 56.1998 64.9768 45.9961 77.3964 45.9961C89.816 45.9961 99.9392 56.1998 99.9392 68.7087C99.9392 81.2087 89.807 91.4213 77.3964 91.4213ZM23.2686 136.516C10.8669 136.489 0.770385 126.241 0.806125 113.732C0.813208 107.732 3.19843 101.98 7.43907 97.7363C11.6797 93.4923 17.4299 91.1025 23.4294 91.0907C35.84 91.1175 45.9365 101.366 45.8918 113.884C45.88 119.881 43.493 125.629 39.2531 129.871C35.0132 134.112 29.2658 136.502 23.2686 136.516ZM228.433 136.516C222.434 136.528 216.675 134.162 212.416 129.937C208.157 125.712 205.746 119.972 205.711 113.973C205.648 101.446 215.7 91.1622 228.093 91.0997C234.089 91.0901 239.844 93.4554 244.101 97.6783C248.357 101.901 250.768 107.638 250.806 113.634C250.877 126.151 240.816 136.444 228.433 136.516Z" fill="#444444"/>
<path d="M186.179 47.3183C180.05 45.4062 173.501 44.611 167.076 43.9141C157.141 42.8419 153.183 38.9642 151.503 29.0106C150.556 23.4531 149.233 17.7526 146.83 12.7044C142.246 3.09933 131.506 -1.20731 120.722 1.2498C111.608 3.33164 104.04 12.4006 103.62 21.7108C103.138 32.3255 109.214 41.3945 119.65 44.5217C124.609 46.0138 129.88 46.7554 135.054 47.1396C144.551 47.8276 147.723 50.66 150.288 54.9845C151.914 57.7186 153.477 60.408 153.477 68.5388C153.477 76.6785 151.896 79.3679 150.288 82.0931C147.723 86.4176 144.551 89.241 135.054 89.9469C129.871 90.3222 124.6 91.0727 119.65 92.5648C109.214 95.701 103.138 104.752 103.62 115.385C104.04 124.686 111.617 133.755 120.722 135.837C131.506 138.303 142.246 133.987 146.83 124.382C149.242 119.343 150.556 113.633 151.503 108.076C153.191 98.1224 157.15 94.2535 167.076 93.1724C173.51 92.4755 180.05 91.6713 186.179 89.7593C195.481 86.8554 201.074 78.1796 201.074 68.5388C201.074 58.9069 195.481 50.24 186.179 47.3183Z" fill="#999999"/>
</svg>
